# xmcd
#
# Track frame offsets:
#	150
#	19817
#	42072
#	52244
#	66837
#	82626
#	98599
#	114672
#	132419
#	146488
#	170509
#	182150
#	204742
#	218255
#	232774
#	250502
#	267326
#	283447
#	303106
#
# Disc length: 4381 seconds
#
# Revision: 1
# Processed by: cddbd v1.5PL3 Copyright (c) Steve Scherf et al.
# Submitted via: audiograbber 1.82.01
#
DISCID=06111b13
DTITLE=Julio Iglesiais - Mi Vida - Grandes Exitos - CD 2
DYEAR=1900
DGENRE=
TTITLE0=Un canto a Galicia
TTITLE1=Hey
TTITLE2=La vida sigue igual
TTITLE3=Abrazame
TTITLE4=To all the girls I've loved before
TTITLE5=33 anos
TTITLE6=Manuela
TTITLE7=All of you 
TTITLE8=Ae, ao
TTITLE9=Caruso
TTITLE10=A media luz
TTITLE11=La carretera
TTITLE12=Can't help falling in love
TTITLE13=Crazy
TTITLE14=When you tell me that you love me
TTITLE15=Por el amor de una mujer
TTITLE16=Smoke gets in your eyes
TTITLE17=My way (A mi manera)
TTITLE18=Me va, me va
EXTD=
EXTT0=
EXTT1=
EXTT2=
EXTT3=
EXTT4=
EXTT5=
EXTT6=
EXTT7=
EXTT8=
EXTT9=
EXTT10=
EXTT11=
EXTT12=
EXTT13=
EXTT14=
EXTT15=
EXTT16=
EXTT17=
EXTT18=
PLAYORDER=
